HIERARCHY
ROOT root
{
	OFFSET	0	13.1	24.9
	CHANNELS 6  Xposition Yposition Zposition Xrotation Yrotation Zrotation
	JOINT spine_1
	{
		OFFSET	0	9.99999	0
		CHANNELS 3  Xrotation Yrotation Zrotation
		JOINT spine_2
		{
			OFFSET	0	112	-10
			CHANNELS 3  Xrotation Yrotation Zrotation
			JOINT spine_3
			{
				OFFSET	0	206.5	19.3
				CHANNELS 3  Xrotation Yrotation Zrotation
				JOINT spine_4
				{
					OFFSET	0	110.4	14.6
					CHANNELS 3  Xrotation Yrotation Zrotation
					JOINT neck_1
					{
						OFFSET	0	71.8	-50.3
						CHANNELS 3  Xrotation Yrotation Zrotation
						JOINT neck_2
						{
							OFFSET	0	86.2	-25.8
							CHANNELS 3  Xrotation Yrotation Zrotation
							JOINT head_ee
							{
								OFFSET	0	179.8	-8.7
								CHANNELS 3  Xrotation Yrotation Zrotation
								End Site
								{
									OFFSET	1	0	0
								}
							}
						}
					}
					JOINT left_clavicle
					{
						OFFSET	-43.2	22.4	-70.8
						CHANNELS 3  Xrotation Yrotation Zrotation
						JOINT left_shoulder
						{
							OFFSET	-93.9	-5.79999	48.7
							CHANNELS 3  Xrotation Yrotation Zrotation
							JOINT left_elbow
							{
								OFFSET	-291.4	-30.8	15.2
								CHANNELS 3  Xrotation Yrotation Zrotation
								JOINT left_lowarm_twist
								{
									OFFSET	-110.7	-3.89999	13.6
									CHANNELS 3  Xrotation Yrotation Zrotation
									JOINT left_hand
									{
										OFFSET	-110.7	-3.89999	13.6
										CHANNELS 3  Xrotation Yrotation Zrotation
										JOINT left_ee
										{
											OFFSET	-80.8	-5.10001	12.1
											CHANNELS 3  Xrotation Yrotation Zrotation
											End Site
											{
												OFFSET	1	0	0
											}
										}
									}
								}
							}
						}
					}
					JOINT right_clavicle
					{
						OFFSET	43.2	22.4	-70.8
						CHANNELS 3  Xrotation Yrotation Zrotation
						JOINT right_shoulder
						{
							OFFSET	93.9	-5.79999	48.7
							CHANNELS 3  Xrotation Yrotation Zrotation
							JOINT right_elbow
							{
								OFFSET	291.4	-30.8	15.2
								CHANNELS 3  Xrotation Yrotation Zrotation
								JOINT right_lowarm_twist
								{
									OFFSET	110.7	-3.89999	13.6
									CHANNELS 3  Xrotation Yrotation Zrotation
									JOINT right_hand
									{
										OFFSET	110.7	-3.89999	13.6
										CHANNELS 3  Xrotation Yrotation Zrotation
										JOINT right_ee
										{
											OFFSET	80.8	-5.10001	12.1
											CHANNELS 3  Xrotation Yrotation Zrotation
											End Site
											{
												OFFSET	1	0	0
											}
										}
									}
								}
							}
						}
					}
				}
			}
		}
	}
	JOINT left_hip
	{
		OFFSET	-82.8	-127.5	0.300001
		CHANNELS 3  Xrotation Yrotation Zrotation
		JOINT left_knee
		{
			OFFSET	-28.2	-396.7	2.2
			CHANNELS 3  Xrotation Yrotation Zrotation
			JOINT left_ankle
			{
				OFFSET	-11.7	-411.3	35.4
				CHANNELS 3  Xrotation Yrotation Zrotation
				JOINT left_toes
				{
					OFFSET	0	-60	-88.6
					CHANNELS 3  Xrotation Yrotation Zrotation
					JOINT left_foot_ee
					{
						OFFSET	-22.5	-16.5	-42.2
						CHANNELS 3  Xrotation Yrotation Zrotation
						End Site
						{
							OFFSET	1	0	0
						}
					}
				}
			}
		}
	}
	JOINT right_hip
	{
		OFFSET	82.8	-127.5	0.300001
		CHANNELS 3  Xrotation Yrotation Zrotation
		JOINT right_knee
		{
			OFFSET	28.2	-396.7	2.2
			CHANNELS 3  Xrotation Yrotation Zrotation
			JOINT right_ankle
			{
				OFFSET	11.7	-411.3	35.4
				CHANNELS 3  Xrotation Yrotation Zrotation
				JOINT right_toes
				{
					OFFSET	0	-60	-88.6
					CHANNELS 3  Xrotation Yrotation Zrotation
					JOINT right_foot_ee
					{
						OFFSET	22.5	-16.5	-42.2
						CHANNELS 3  Xrotation Yrotation Zrotation
						End Site
						{
							OFFSET	1	0	0
						}
					}
				}
			}
		}
	}
}
MOTION
Frames: 5
Frame Time: 0.02
2503.52 705.803 -1523.41 -2.05487 55.0735 -5.88804 0.0227234 0.0541404 3.27373 0.0286719 -0.154172 3.27055 0.0222205 -0.837825 3.16528 0.0083902 -0.327693 3.25775 -5.42959 21.7045 1.13787 -5.15252 39.3199 5.07651 -0.0 0.0 -0.0 1.42452 15.7347 4.10369 7.42397 -15.2404 42.2496 8.26997 -76.2368 6.49311 -56.2761 -4.8236 4.97024 -1.97351 19.2367 -4.0404 -0.0 0.0 -0.0 10.5603 17.3041 -20.8324 -25.7092 14.5781 -61.419 0.333091 9.36979 -0.0272968 22.0238 -0.243321 2.78554 1.26198 -29.1314 -18.447 0.0 0.0 0.0 -15.1322 6.11321 19.615 -13.5817 0.316878 2.05534 18.0274 15.0033 -2.50585 11.8823 -0.0 -0.0 -0.0 0.0 -0.0 32.2643 26.9031 -10.3127 -1.85942 -0.0720822 -0.27624 0.574438 -27.4753 0.0888299 -20.2035 0.0 0.0 0.0 0.0 0.0 
2479.32 706.234 -1525.73 -2.02105 56.1267 -6.24154 -0.0351512 0.0681889 3.48183 -0.0284207 -0.153371 3.47912 -0.0349648 -0.884339 3.36847 -0.050634 -0.34159 3.46572 -5.18656 21.6164 0.482837 -4.85251 39.5798 4.30177 -0.0 0.0 -0.0 1.61273 14.5815 4.31707 6.72307 -14.9575 42.9437 7.32713 -74.557 5.58063 -56.2263 -4.81752 4.96828 -1.77545 19.4198 -2.76762 -0.0 0.0 -0.0 10.7334 16.9002 -21.2434 -25.3861 14.6017 -61.0965 0.357764 10.0501 -0.0314581 22.5811 -0.23551 2.8563 1.31843 -29.1035 -18.7633 0.0 0.0 0.0 -16.6073 6.72645 20.5094 -13.9673 0.318716 2.11447 18.2368 16.4609 -2.54231 11.6784 -0.0 -0.0 -0.0 0.0 -0.0 33.0587 27.9021 -10.0091 -4.89921 -0.170485 -0.732326 -0.252654 -27.2157 -0.0390789 -19.8999 0.0 0.0 0.0 0.0 0.0 
2458.36 702.516 -1526.92 -1.94145 56.4997 -7.04588 0.00914264 0.139861 3.52316 0.0160433 -0.084469 3.52492 0.0137419 -0.82365 3.4285 -0.00255599 -0.272197 3.51542 -4.76375 21.5272 -0.13239 -4.33315 39.7747 3.49104 -0.0 0.0 -0.0 1.72934 14.0285 4.46563 6.23647 -14.7584 43.4239 6.77934 -73.3818 5.05411 -56.103 -4.80247 4.96342 -1.62883 19.556 -1.8288 -0.0 0.0 -0.0 11.064 16.5441 -22.0067 -25.1426 14.6481 -60.8945 0.398803 11.1754 -0.0390167 23.0463 -0.228463 2.91531 1.37388 -28.9654 -19.0462 0.0 0.0 0.0 -17.6152 7.12068 21.0533 -14.2972 0.319972 2.16508 18.4223 17.6592 -2.57544 11.5423 -0.0 -0.0 -0.0 0.0 -0.0 33.6446 28.832 -9.4544 -7.94928 -0.244754 -1.19445 -0.884729 -26.9857 -0.136839 -19.697 0.0 0.0 0.0 0.0 0.0 
2446.51 705.627 -1532.79 -2.28424 57.0265 -6.59888 0.0440957 0.194002 3.59175 0.0512709 -0.034793 3.59681 0.0521299 -0.787795 3.50976 0.0350124 -0.223982 3.59001 -4.52085 20.7521 -1.48121 -4.02647 39.2817 1.87868 -0.0 0.0 -0.0 1.89359 13.2479 4.67961 5.33531 -14.5268 44.0578 5.95861 -71.2534 4.27202 -56.0379 -4.79453 4.96085 -1.4802 19.6522 -0.899114 -0.0 0.0 -0.0 11.398 16.2249 -22.778 -23.7174 15.2155 -60.8679 0.467427 13.0373 -0.0534109 23.7635 -0.216662 3.00615 1.47209 -28.4489 -19.4816 0.0 0.0 0.0 -16.7595 9.55698 20.9851 -14.1311 0.319376 2.13959 18.4776 19.8331 -2.60251 11.432 -0.0 -0.0 -0.0 0.0 -0.0 33.9514 29.5686 -9.50142 -10.1152 -0.282505 -1.52465 -0.93204 -25.3844 -0.142888 -19.3092 0.0 0.0 0.0 0.0 0.0 
2429.03 706.711 -1534.22 -3.34522 57.2669 -5.93281 0.017885 0.312943 3.64527 0.0252727 0.0805098 3.65777 0.0338114 -0.688794 3.59332 0.0158139 -0.113049 3.65691 -4.43381 20.1849 -2.42405 -3.90504 38.9123 0.775703 -0.0 0.0 -0.0 1.97715 12.9608 4.79804 4.30824 -14.2666 44.6316 5.44956 -69.6461 3.79227 -55.953 -4.78417 4.95747 -1.37005 19.721 -0.212539 -0.0 0.0 -0.0 11.6298 15.9982 -23.3147 -22.7246 15.6504 -60.8483 0.517667 14.383 -0.065319 24.2673 -0.207691 3.06989 1.54101 -28.0868 -19.7914 0.0 0.0 0.0 -16.4648 11.0781 19.8819 -14.4526 0.320463 2.18891 18.5814 21.4117 -2.63317 11.3926 -0.0 -0.0 -0.0 0.0 -0.0 33.578 30.2081 -9.12305 -11.7996 -0.303218 -1.78226 -0.938603 -24.0621 -0.14293 -19.0341 0.0 0.0 0.0 0.0 0.0 
